<?xml version="1.0" encoding="iso-8859-1"?>
<!-- Uploaded to: SVG Repo, www.svgrepo.com, Generator: SVG Repo Mixer Tools -->
<svg fill="#000000" height="800px" width="800px" version="1.1" id="Layer_1" xmlns="http://www.w3.org/2000/svg" xmlns:xlink="http://www.w3.org/1999/xlink" 
	 viewBox="0 0 301.295 301.295" xml:space="preserve">
<g>
	<g>
		<g>
			<path d="M301.289,79.103C301.294,79.202,301.289,75.371,301.289,79.103L301.289,79.103z"/>
			<path d="M301.289,79.103c0-3.732-3.561-6.912-7.186-6.892h-96.642V48.23c0-3.959-3.21-7.169-7.169-7.169h-79.291
				c-3.959,0-7.168,3.209-7.168,7.169v23.982H7.191C3.342,72.169,0,75.593,0,79.401c0,57.525,0,115.05,0,172.575
				c0,0.012,0,0.025,0,0.038v1.051c0,3.959,3.21,7.169,7.169,7.169h286.958c3.959,0,7.169-3.209,7.169-7.169V79.401
				C301.294,79.302,301.291,79.202,301.289,79.103z M118.171,55.398h64.954v16.813h-64.954V55.398z M276.309,86.548l-75.521,72.506
				h-31.802v-8.407c0-3.959-3.21-7.169-7.168-7.169h-22.34c-3.959,0-7.168,3.209-7.168,7.169v8.407h-31.802L24.986,86.548H276.309z
				 M146.646,166.064v-8.248h8.003v16.813h-8.003v-8.248c0.001-0.052,0.002-0.106,0.002-0.159
				C146.648,166.169,146.647,166.117,146.646,166.064z M70.333,245.896l18.72-18.721c2.799-2.8,2.799-7.338,0-10.138
				c-2.799-2.8-7.338-2.8-10.138,0l-28.858,28.859H23.404l26.156-26.156c2.799-2.8,2.799-7.338,0-10.138
				c-2.8-2.8-7.338-2.8-10.139,0l-25.085,25.086v-27.472l27.695-27.695c2.799-2.799,2.799-7.338,0-10.138
				c-2.8-2.8-7.338-2.8-10.139,0l-17.556,17.558V96.2l78.32,75.194c1.335,1.281,3.114,1.997,4.965,1.997h34.686v8.407
				c0,3.959,3.21,7.169,7.168,7.169h22.34c3.959,0,7.168-3.209,7.168-7.169v-8.407h34.686c1.851,0,3.63-0.716,4.965-1.997
				l78.32-75.194v149.697H70.333z"/>
			<path d="M301.289,79.103C301.294,79.202,301.289,79.102,301.289,79.103L301.289,79.103z"/>
		</g>
	</g>
</g>
</svg>